## 1. 总结

### 1.1 转码命令参数说明

通过逆向查看源码，仰邦app的转码功能会将原视频（无论什么编码格式、封装格式）转码为`h264`编码的`mp4`格式目标文件。由于android手机录制的视频基本上都是采用`h264`编码的`MP4`格式的文件，可能仰邦app的转码主要是为了缩小视频大小方便传输。下面是抓取仰邦的转码命令及参数：

`ffmpeg, -i, /storage/emulated/0/Movies/generated_video_1648277243984.mp4, -b:a, 128K, -ar, 44100, -acodec, aac, -vcodec, h264, -r, 25, -s, 320x176, -b:v, 251k, -y, /storage/emulated/0/Android/data/com.onbonbx.ledmedia/cache/ledmedia/generated_video_1648277243984C_320x176_convert.mp4`

```xml
ffmpeg    -- 命令
-i        -- 文件输入
-b        -- 表示视频的码率，与-b:v含义一样，单位为bps，可写成如“-b:v 500k”
-ar       -- 表示音频的采样率 如44100
-acodec   -- 表示音频编码器，如aac
-vcodec   -- 在-i前时表示解码时用到的解码器，在-i后面表示编码时用的编码器，前后可同时出现
-r        -- 表示帧率，如25
-s        -- 表示编码输出的分辨率，如320x176
-b        -- 表示视频的码率，与-b:v含义一样，单位为bps，可写成如“-b:v 500k”
-y        -- 覆盖输出文件
```

### 1.2 转码耗时

以下是不同大小时长 ，编码格式为`h264`，`mp4`格式的视频文件转码统计信息（信息依次为 ： 分辨率、文件大小、时长）：

- `1920x1080` `605M` `04:08`转码为 `320x176` `12 M` 耗时**67 s**

- `1280x720` `37M` `05:34`转码为 `320x176` `13 M` 耗时**29 s**

- `1920x1080` `4.53M` `00:14` 转码为 `320x176` `663kb` 耗时**2 s**

转码耗时 和 原视频文件的 **时长**、**分辨率**、**比特率** 等多种因素有关，由于时间关系没有做单个因素的对比测试。

### 1.3 耗电量分析

上述转码测试中第一个用例（耗时67s的）耗电量为**0.0209**，这个耗电量测试粒度不够精确仅做参考（通常需要编写测试用例长时间持续测试）

> `1920x1080` `605M` `04:08`转码为 `320x176` `12 M` 耗时**67 s**



### 1.4 发热量分析

暂未找到合适的分析方法







## 2. 逆向分析&测试过程

### 2.1 高清mp4转码为标清

通过逆向破解仰邦的app，修改节目发送逻辑，插入视频转码日志代码后重新打包。将手机录制的mp4格式视频转码为标清 ， 打印日志如下。

- 原视频信息：

  ```xml
  /storage/emulated/0/Movies/generated_video_1648277243984.mp4
  大小：605 MB
  分辨率：1920x1080
  时长：00:04:08.52 
  比特率：20443 kb/s, 
  帧率：30, 
  编码格式：h264
  ```

- 转码后视频信息(耗时67s)：

  ```xml
  /storage/emulated/0/Android/data/com.onbonbx.ledmedia/cache/ledmedia/generated_video_1648277243984C_320x176_convert.mp4
  大小：12 MB
  分辨率：320x176 
  时长：00:04:08.56
  比特率：394 kb/s, 
  帧率：25, 
  编码格式：h264
  ```

- 逆向打印转码日志如下

  ```xml
  com.onbonbx.ledmedia
  
  2023-09-08 17:16:10.418 30825-30990 AddAreaFragment         com.onbonbx.ledmedia                 I  
  transcodingCompress: fileName = generated_video_1648277243984   
  src = /storage/emulated/0/Movies/generated_video_1648277243984.mp4    
  str = /storage/emulated/0/Movies/generated_video_1648277243984.mp4
  
  2023-09-08 17:16:10.418 30825-30990 Convert Video           com.onbonbx.ledmedia                 D  
  transcodingCompress dest: /storage/emulated/0/Android/data/com.onbonbx.ledmedia/cache/ledmedia/generated_video_1648277243984C_320x176_convert.mp4
  
  // 原视频信息
  2023-09-08 17:16:10.463 30825-30990 AddAreaFragment         com.onbonbx.ledmedia                 I  transcodingCompress1: src vedio info = VideoInfo{rotation=1, width=1920, height=1080, duration=248523, bitrate=20443934, fps=30, videoCodec='h264'}
  
  // 转码命令
  2023-09-08 17:16:10.464 30825-30990 FFmpegCmd               com.onbonbx.ledmedia                 D  run: 
  [ffmpeg, -i, /storage/emulated/0/Movies/generated_video_1648277243984.mp4, -b:a, 128K, -ar, 44100, -acodec, aac, -vcodec, h264, -r, 25, -s, 320x176, -b:v, 251k, -y, /storage/emulated/0/Android/data/com.onbonbx.ledmedia/cache/ledmedia/generated_video_1648277243984C_320x176_convert.mp4]
  
  // 转码完成
  2023-09-08 17:17:17.882 30825-30825 =====                   com.onbonbx.ledmedia                 W  ---------------------------transcodingCompress1: trance vedio finish = /storage/emulated/0/Android/data/com.onbonbx.ledmedia/cache/ledmedia/generated_video_1648277243984C_320x176_convert.mp4
  
  
  ☆☆☆☆日志分析，开始时间为17:16:10.464，结束时间为17:17:17.882，总耗时67秒
  
  adb pull /storage/emulated/0/Movies/generated_video_1648277243984.mp4 generated_video_1648277243984.mp4
  
  ffmpeg -i .\generated_video_1648277243984.mp4
        major_brand     : mp42
      minor_version   : 0
      compatible_brands: isommp42
      creation_time   : 2022-03-26T06:47:23.000000Z
      com.android.version: 10
    Duration: 00:04:08.52, start: 0.000000, bitrate: 20443 kb/s
    Stream #0:0[0x1](eng): Audio: aac (LC) (mp4a / 0x6134706D), 44100 Hz, stereo, fltp, 320 kb/s (default)
      Metadata:
        creation_time   : 2022-03-26T06:47:23.000000Z
    Stream #0:1[0x2](eng): Video: h264 (High) (avc1 / 0x31637661), yuv420p(tv, unknown/bt470bg/unknown, progressive), 1920x1080, 20123 kb/s, SAR 1:1 DAR 16:9, 30 fps, 30 tbr, 90k tbn (default)
  
  
   ffmpeg -i .\generated_video_1648277243984C_320x176_convert.mp4
      major_brand     : isom
      minor_version   : 512
      compatible_brands: isomiso2avc1mp41
      encoder         : Lavf58.76.100
    Duration: 00:04:08.56, start: 0.000000, bitrate: 394 kb/s
    Stream #0:0[0x1](eng): Video: h264 (High) (avc1 / 0x31637661), yuv420p(tv, unknown/bt470bg/unknown, progressive), 320x176 [SAR 44:45 DAR 16:9], 259 kb/s, 25 fps, 25 tbr, 12800 tbn (default)
      Metadata:
    Stream #0:1[0x2](eng): Audio: aac (LC) (mp4a / 0x6134706D), 44100 Hz, stereo, fltp, 128 kb/s (default)
  ```

### 2.2 视频转码耗电量分[析](https://www.zhihu.com/question/31161719/answer/2909381895)

- 命令如下

  ```bash
  # 重启adb
  PS E:\workspace\ledmedia> adb kill-server
  PS E:\workspace\ledmedia> adb start-server
  # 重置电池数据
  PS E:\workspace\ledmedia> adb shell dumpsys batterystats --enable full-wake-history
  Enabled: full-wake-history
  PS E:\workspace\ledmedia> adb shell dumpsys batterystats --reset
  Battery stats reset.
  # 拔掉数据线，开始测试
  
  # 测试完成后使用数据线连接电脑
  # 收集电量数据
  PS E:\workspace\ledmedia> adb shell dumpsys batterystats > D:/batterystats.txt
  # 打开得到的txt文件，根据测试的包名找到对应的UID （u0a783）
   	0 (2) 100 proc=u0a783:"com.onbonbx.ledmedia"
  
  # 根据uid查询电量消耗
    Estimated power use (mAh):
      Uid u0a783: 0.0209 ( cpu=0.0209 ) Including smearing: 0.0216 ( proportional=0.000720 )
  ```

  

```
ffmpeg -i E:\workspace\ledmedia\generated_video_1648277243984.mp4 -b:a 128K -ar 44100 -acodec aac -vcodec h264 -r 25 -s 416x750 -b:v 251k -y E:\workspace\ledmedia\generated_video_415x750.mp4
```



